<svg id="Layer_1" data-name="Layer 1" xmlns="http://www.w3.org/2000/svg" viewBox="0 0 360 360"><defs><style>.cls-1{fill:none;stroke:#000;stroke-miterlimit:10;stroke-width:4.66px;}</style></defs><title>Minimal Zodiac Symbols</title><circle class="cls-1" cx="143.82" cy="212.18" r="27.14"/><path class="cls-1" d="M241.19,249.36a17.88,17.88,0,0,1-33.26-13.15l.14-.24,32.51-80.21,1.32-4.07c.26-1,.48-1.94.67-2.92a42.08,42.08,0,0,0,.68-5.38,43.71,43.71,0,0,0,0-5.49,41.43,41.43,0,0,0-.79-5.55c-.2-.93-.42-1.85-.68-2.76s-.58-1.76-.89-2.62c-.47-1.3-1-2.58-1.59-3.83s-1.22-2.42-1.92-3.59-1.44-2.26-2.23-3.34-1.63-2.09-2.52-3.07-1.81-1.92-2.78-2.81-2-1.72-3-2.51-2.12-1.53-3.23-2.22-2.25-1.32-3.42-1.9-2.36-1.11-3.58-1.58-2.46-.88-3.72-1.23-2.55-.65-3.84-.89-2.61-.41-3.92-.52-2.66-.16-4-.15-2.69.1-4,.25-2.71.36-4.05.64-2.69.64-4,1.06a41.8,41.8,0,0,0-29.1,37.14c-.66,10.22,9.8,64.14,10.38,67.77"/></svg>