<?xml version="1.0" encoding="iso-8859-1"?>
<!-- Generator: Adobe Illustrator 19.0.0, SVG Export Plug-In . SVG Version: 6.00 Build 0)  -->
<svg version="1.1" id="Layer_1" xmlns="http://www.w3.org/2000/svg" xmlns:xlink="http://www.w3.org/1999/xlink" x="0px" y="0px"
	 viewBox="0 0 512 512" style="enable-background:new 0 0 512 512;" xml:space="preserve">
<path id="SVGCleanerId_0" style="fill:#FC6760;" d="M372.769,72.506c-47.955,0-89.798,26.162-112.04,64.99
	c-22.242-38.828-64.085-64.99-112.04-64.99c-71.263,0-129.032,57.769-129.032,129.032c0,49.164,26.129,79.742,54.871,98.506
	c68.406,44.658,129.598,99.491,179.755,163.975l6.446,8.288l6.446-8.288c50.157-64.483,111.349-119.316,179.755-163.975
	c28.743-18.764,54.873-49.342,54.873-98.506C501.801,130.276,444.032,72.506,372.769,72.506z"/>
<g>
	<path id="SVGCleanerId_0_1_" style="fill:#FC6760;" d="M372.769,72.506c-47.955,0-89.798,26.162-112.04,64.99
		c-22.242-38.828-64.085-64.99-112.04-64.99c-71.263,0-129.032,57.769-129.032,129.032c0,49.164,26.129,79.742,54.871,98.506
		c68.406,44.658,129.598,99.491,179.755,163.975l6.446,8.288l6.446-8.288c50.157-64.483,111.349-119.316,179.755-163.975
		c28.743-18.764,54.873-49.342,54.873-98.506C501.801,130.276,444.032,72.506,372.769,72.506z"/>
</g>
<g>
	<path style="fill:#00537B;" d="M512,201.538c0-76.772-62.459-139.231-139.231-139.231c-44.361,0-85.971,21.331-112.04,56.569
		c-26.069-35.238-67.679-56.569-112.04-56.569c-27.641,0-53.424,8.097-75.108,22.043L36.007,49.891h30.979
		c5.633,0,10.199-4.566,10.199-10.199s-4.566-10.199-10.199-10.199H10.199C4.566,29.493,0,34.059,0,39.692v56.787
		c0,5.633,4.566,10.199,10.199,10.199s10.199-4.566,10.199-10.199V63.255l36.618,33.583c-29.133,25.539-47.56,63.007-47.56,104.701
		c0,44.622,20.573,81.636,59.495,107.047c69.441,45.334,129.087,99.737,177.281,161.696l6.447,8.288
		c1.933,2.485,4.904,3.937,8.05,3.937c3.147,0,6.118-1.453,8.051-3.937l6.446-8.288c25.913-33.316,55.143-64.442,87.42-93.152
		l74.91,68.701c1.958,1.796,4.427,2.682,6.891,2.682c2.758,0,5.508-1.113,7.52-3.306c3.807-4.151,3.528-10.603-0.623-14.41
		l-73.166-67.101c23.324-19.606,48.128-38.004,74.329-55.109C491.427,283.176,512,246.16,512,201.538z M363.024,349.799
		l-105.081-96.37l8.883-8.884c3.983-3.983,3.983-10.441,0-14.425c-3.983-3.984-10.441-3.983-14.425,0l-34.517,34.517
		c-3.983,3.983-3.983,10.441,0,14.425c1.992,1.992,4.602,2.987,7.212,2.987s5.221-0.995,7.212-2.987l11.197-11.197l104.03,95.406
		c-31.929,28.559-60.946,59.439-86.807,92.431c-49.298-62.894-110.054-118.127-180.625-164.199
		c-33.342-21.767-50.247-52.036-50.247-89.966c0-65.525,53.308-118.833,118.833-118.833c42.499,0,82.039,22.937,103.19,59.861
		c1.817,3.172,5.193,5.129,8.85,5.129s7.033-1.957,8.85-5.129c21.151-36.924,60.69-59.861,103.189-59.861
		c65.526,0,118.834,53.308,118.834,118.833c0,37.93-16.905,68.199-50.247,89.966C413.702,309.557,387.565,329.023,363.024,349.799z"
		/>
	<path style="fill:#00537B;" d="M374.868,104.07c-1.434-0.063-2.896-0.095-4.343-0.095c-5.633,0-10.199,4.566-10.199,10.199
		c0,5.633,4.566,10.199,10.199,10.199c1.15,0,2.31,0.026,3.446,0.075c0.153,0.007,0.304,0.01,0.456,0.01
		c5.426,0,9.941-4.277,10.182-9.751C384.856,109.079,380.495,104.316,374.868,104.07z"/>
	<path style="fill:#00537B;" d="M467.953,201.402c0-36.772-20.35-70.027-53.109-86.785c-5.015-2.564-11.16-0.579-13.725,4.436
		c-2.565,5.015-0.579,11.159,4.436,13.725c25.907,13.254,42.001,39.549,42.001,68.625c0,5.633,4.566,10.199,10.199,10.199
		S467.953,207.035,467.953,201.402z"/>
</g>
<g>
</g>
<g>
</g>
<g>
</g>
<g>
</g>
<g>
</g>
<g>
</g>
<g>
</g>
<g>
</g>
<g>
</g>
<g>
</g>
<g>
</g>
<g>
</g>
<g>
</g>
<g>
</g>
<g>
</g>
</svg>
